<?xml version="1.0" standalone="no"?>
<!DOCTYPE svg PUBLIC "-//W3C//DTD SVG 20010904//EN"
 "http://www.w3.org/TR/2001/REC-SVG-20010904/DTD/svg10.dtd">
<svg version="1.0" xmlns="http://www.w3.org/2000/svg"
 width="500.000000pt" height="500.000000pt" viewBox="0 0 500.000000 500.000000"
 preserveAspectRatio="xMidYMid meet">
<metadata>
Created by potrace 1.14, written by Peter Selinger 2001-2017
</metadata>
<g transform="translate(0.000000,500.000000) scale(0.100000,-0.100000)"
fill="#000000" stroke="none">
<path d="M2458 4195 c-2 -2 -37 -6 -78 -9 -240 -22 -449 -77 -609 -162 -155
-81 -238 -176 -236 -269 1 -49 14 -105 24 -105 4 0 8 -6 8 -13 0 -10 -39 -13
-179 -12 l-178 1 -32 30 c-73 68 -82 74 -115 74 -44 0 -83 -38 -83 -80 0 -24
10 -42 40 -71 l40 -40 -29 -28 c-67 -66 -69 -126 -3 -157 44 -21 69 -11 135
53 l54 52 253 0 252 0 46 -34 c56 -40 168 -96 237 -120 182 -62 387 -58 590
10 79 26 200 81 262 120 l42 26 16 -38 c169 -400 89 -715 -225 -891 l-55 -31
-755 -3 -755 -3 -58 -29 c-78 -38 -132 -93 -169 -171 -28 -60 -30 -72 -26
-148 3 -45 11 -95 18 -112 8 -16 14 -34 14 -39 1 -6 -53 -11 -124 -12 -141 -3
-201 -18 -266 -67 -120 -91 -166 -236 -119 -377 10 -30 16 -57 14 -60 -8 -8
-39 -7 -39 2 0 5 -5 6 -11 2 -6 -3 -33 -8 -61 -9 -125 -8 -251 -116 -288 -248
-16 -60 -8 -162 19 -222 30 -67 102 -138 174 -171 l62 -29 1820 -1 c1004 0
1838 3 1860 8 70 16 125 49 194 117 36 37 84 80 106 96 111 82 265 238 395
401 48 59 138 209 189 314 33 67 59 122 58 123 0 1 10 34 23 72 13 39 25 75
26 80 1 6 9 37 17 70 34 128 45 232 43 385 -2 133 -10 160 -52 179 -37 17
-104 -6 -104 -34 0 -8 -5 -15 -10 -15 -6 0 -9 -3 -8 -7 5 -21 -79 -213 -94
-213 -4 0 -8 -5 -8 -10 0 -45 -256 -311 -412 -428 -140 -105 -514 -332 -547
-332 -4 0 -7 15 -6 33 6 120 -77 253 -192 307 -61 29 -113 36 -261 35 -105 -1
-121 1 -105 12 123 90 218 194 300 328 18 30 49 98 64 141 8 22 16 41 19 44 3
3 6 10 6 15 1 6 9 42 17 80 9 39 19 94 22 124 4 30 8 63 11 74 9 47 17 267 16
442 0 155 -4 209 -22 290 -28 132 -24 120 -76 230 -37 80 -59 110 -130 180
-70 69 -84 79 -182 131 -98 52 -260 94 -427 109 -70 7 -352 14 -357 10z"/>
</g>
</svg>
